<?xml version="1.0" encoding="utf-8"?>
<!-- Generator: Adobe Illustrator 17.0.0, SVG Export Plug-In . SVG Version: 6.00 Build 0)  -->
<!DOCTYPE svg PUBLIC "-//W3C//DTD SVG 1.1//EN" "http://www.w3.org/Graphics/SVG/1.1/DTD/svg11.dtd">
<svg version="1.1" id="Layer_1" xmlns="http://www.w3.org/2000/svg" xmlns:xlink="http://www.w3.org/1999/xlink" x="0px" y="0px"
	 width="595.28px" height="841.89px" viewBox="0 0 595.28 841.89" enable-background="new 0 0 595.28 841.89" xml:space="preserve">
<circle cx="297.64" cy="420.945" r="298.076"/>
<g>
	<g>
		<g>
			<g>
				<path id="SVGID_1_" fill="#FFFFFF" d="M264.944,520.846c0.256,0,0.466-0.21,0.466-0.466v-52.743c0-0.256-0.21-0.466-0.466-0.466
					h-73.019c-0.256,0-0.376-0.19-0.268-0.422l93.284-198.725c0.109-0.232-0.012-0.421-0.268-0.421h-63.185
					c-0.256,0-0.554,0.19-0.661,0.422L103.455,520.424c-0.108,0.232,0.013,0.422,0.269,0.422L264.944,520.846L264.944,520.846z"/>
			</g>
			<g>
				<defs>
					<path id="SVGID_2_" d="M264.944,520.846c0.256,0,0.466-0.21,0.466-0.466v-52.743c0-0.256-0.21-0.466-0.466-0.466h-73.019
						c-0.256,0-0.376-0.19-0.268-0.422l93.284-198.725c0.109-0.232-0.012-0.421-0.268-0.421h-63.185
						c-0.256,0-0.554,0.19-0.661,0.422L103.455,520.424c-0.108,0.232,0.013,0.422,0.269,0.422L264.944,520.846L264.944,520.846z"/>
				</defs>
				<use xlink:href="#SVGID_2_"  overflow="visible" fill="#FFFFFF"/>
				<clipPath id="SVGID_4_">
					<use xlink:href="#SVGID_2_"  overflow="visible"/>
				</clipPath>
				<g clip-path="url(#SVGID_4_)">
					<g>
						<path id="SVGID_3_" fill="#FFFFFF" d="M-3871.397,12048.24c0,0.257,0.21,0.466,0.466,0.466h8324.254
							c0.256,0,0.466-0.209,0.466-0.466V267.984c0-0.256-0.21-0.466-0.466-0.466h-8324.254c-0.256,0-0.466,0.21-0.466,0.466
							L-3871.397,12048.24L-3871.397,12048.24z"/>
					</g>
				</g>
			</g>
		</g>
		<g>
			<g>
				<path id="SVGID_5_" fill="#FFFFFF" d="M432.614,576.761c-0.256,0-0.554-0.19-0.662-0.422l-25.614-55.07
					c-0.108-0.232-0.406-0.422-0.662-0.422h-99.207c-0.256,0-0.466-0.209-0.466-0.466v-52.509c0-0.256,0.21-0.466,0.466-0.466
					h73.019c0.256,0,0.379-0.19,0.273-0.424L319.916,334.85c-0.106-0.233-0.104-0.614,0.002-0.847l30.277-65.978
					c0.107-0.233,0.282-0.233,0.389,0l142.07,308.313c0.107,0.233-0.014,0.423-0.271,0.423H432.614z"/>
			</g>
			<g>
				<defs>
					<path id="SVGID_6_" d="M432.614,576.761c-0.256,0-0.554-0.19-0.662-0.422l-25.614-55.07c-0.108-0.232-0.406-0.422-0.662-0.422
						h-99.207c-0.256,0-0.466-0.209-0.466-0.466v-52.509c0-0.256,0.21-0.466,0.466-0.466h73.019c0.256,0,0.379-0.19,0.273-0.424
						L319.916,334.85c-0.106-0.233-0.104-0.614,0.002-0.847l30.277-65.978c0.107-0.233,0.282-0.233,0.389,0l142.07,308.313
						c0.107,0.233-0.014,0.423-0.271,0.423H432.614z"/>
				</defs>
				<use xlink:href="#SVGID_6_"  overflow="visible" fill="#FFFFFF"/>
				<clipPath id="SVGID_8_">
					<use xlink:href="#SVGID_6_"  overflow="visible"/>
				</clipPath>
				<g clip-path="url(#SVGID_8_)">
					<g>
						<path id="SVGID_7_" fill="#FFFFFF" d="M-3871.397,12048.24c0,0.257,0.21,0.466,0.466,0.466h8324.254
							c0.256,0,0.466-0.209,0.466-0.466V267.984c0-0.256-0.21-0.466-0.466-0.466h-8324.254c-0.256,0-0.466,0.21-0.466,0.466
							L-3871.397,12048.24L-3871.397,12048.24z"/>
					</g>
				</g>
			</g>
		</g>
	</g>
</g>
</svg>
